<?xml version="1.0" encoding="UTF-8" standalone="no"?>
<!-- Created with Inkscape (http://www.inkscape.org/) -->

<svg
   xmlns:dc="http://purl.org/dc/elements/1.1/"
   xmlns:cc="http://creativecommons.org/ns#"
   xmlns:rdf="http://www.w3.org/1999/02/22-rdf-syntax-ns#"
   xmlns:svg="http://www.w3.org/2000/svg"
   xmlns="http://www.w3.org/2000/svg"
   xmlns:sodipodi="http://sodipodi.sourceforge.net/DTD/sodipodi-0.dtd"
   xmlns:inkscape="http://www.inkscape.org/namespaces/inkscape"
   width="68.415504mm"
   height="19.360968mm"
   viewBox="0 0 68.415506 19.360967"
   version="1.1"
   id="svg8"
   inkscape:version="0.92.3 (2405546, 2018-03-11)"
   sodipodi:docname="palaimon_logo_ohne_i_punkt.svg"
   inkscape:export-filename="/home/sonja/01_UNTERLAGEN/exist_Gründerstipendium/Designer/Palaimon_Logo/palaimon_logo.png"
   inkscape:export-xdpi="96"
   inkscape:export-ydpi="96">
  <defs
     id="defs2">
    <inkscape:perspective
       sodipodi:type="inkscape:persp3d"
       inkscape:vp_x="0 : 27.499999 : 1"
       inkscape:vp_y="0 : 999.99997 : 0"
       inkscape:vp_z="85.000008 : 27.499999 : 1"
       inkscape:persp3d-origin="42.500004 : 18.333332 : 1"
       id="perspective4672" />
  </defs>
  <sodipodi:namedview
     id="base"
     pagecolor="#ffffff"
     bordercolor="#666666"
     borderopacity="1.0"
     inkscape:pageopacity="0.0"
     inkscape:pageshadow="2"
     inkscape:zoom="1.91"
     inkscape:cx="129.18024"
     inkscape:cy="58.114503"
     inkscape:document-units="mm"
     inkscape:current-layer="layer2"
     showgrid="false"
     inkscape:window-width="1920"
     inkscape:window-height="992"
     inkscape:window-x="0"
     inkscape:window-y="24"
     inkscape:window-maximized="1"
     inkscape:pagecheckerboard="false"
     fit-margin-top="0"
     fit-margin-left="0"
     fit-margin-right="0"
     fit-margin-bottom="0" />
  <metadata
     id="metadata5">
    <rdf:RDF>
      <cc:Work
         rdf:about="">
        <dc:format>image/svg+xml</dc:format>
        <dc:type
           rdf:resource="http://purl.org/dc/dcmitype/StillImage" />
        <dc:title />
      </cc:Work>
    </rdf:RDF>
  </metadata>
  <g
     inkscape:label="palaimon.io"
     inkscape:groupmode="layer"
     id="layer1"
     transform="translate(-13.109494,-255.152)"
     style="display:inline;opacity:1" />
  <g
     inkscape:groupmode="layer"
     id="layer4"
     inkscape:label="weiss"
     transform="translate(-13.109494,-13.152001)"
     style="display:inline" />
  <g
     inkscape:groupmode="layer"
     id="layer2"
     inkscape:label="punkt blue"
     style="display:inline;opacity:1"
     transform="translate(-13.109494,-13.152001)" />
  <g
     inkscape:groupmode="layer"
     id="layer3"
     inkscape:label="punkt2"
     transform="translate(-13.109494,-13.152001)"
     style="display:inline">
    <g
       id="g72"
       style="opacity:1">
      <path
         d="m 15.855541,24.749035 q 0.770467,0 1.392767,0.365477 0.632177,0.3556 0.987778,0.987778 0.365477,0.632178 0.365477,1.402645 0,0.770467 -0.3556,1.402645 -0.345722,0.6223 -0.958144,0.987777 -0.602545,0.3556 -1.353256,0.3556 -0.642056,0 -1.175456,-0.2667 -0.5334,-0.276577 -0.879122,-0.750711 v 2.89419 q 0,0.167922 -0.108656,0.276577 -0.108655,0.108656 -0.276577,0.108656 -0.167923,0 -0.276578,-0.108656 -0.09878,-0.108655 -0.09878,-0.276577 v -2.212623 q -0.0099,-0.02963 -0.0099,-0.0889 v -2.321278 q 0,-0.770467 0.3556,-1.402645 0.365478,-0.632178 0.987778,-0.987778 0.632178,-0.365477 1.402645,-0.365477 z m 0,4.810478 q 0.563033,0 1.017411,-0.2667 0.464256,-0.2667 0.721078,-0.730956 0.2667,-0.474133 0.2667,-1.056922 0,-0.582789 -0.2667,-1.047045 -0.256822,-0.474133 -0.721078,-0.740833 -0.454378,-0.276578 -1.017411,-0.276578 -0.563034,0 -1.017411,0.276578 -0.454378,0.2667 -0.721078,0.740833 -0.256823,0.464256 -0.256823,1.047045 0,0.167922 0.0099,0.246944 0.0099,0.01976 0.0099,0.04939 0.09878,0.770467 0.642056,1.264356 0.553155,0.493889 1.3335,0.493889 z"
         style="font-style:normal;font-variant:normal;font-weight:normal;font-stretch:normal;font-size:9.87777901px;line-height:1.25;font-family:Comfortaa;-inkscape-font-specification:Comfortaa;letter-spacing:0px;word-spacing:0px;fill:#f39200;fill-opacity:1;stroke:none;stroke-width:0.26458332"
         id="path27"
         inkscape:connector-curvature="0" />
      <path
         d="m 22.552984,24.749035 q 0.770467,0 1.392767,0.365477 0.632178,0.3556 0.987778,0.987778 0.365477,0.632178 0.365477,1.402645 v 2.321278 q 0,0.158044 -0.108655,0.2667 -0.108656,0.108656 -0.276578,0.108656 -0.167922,0 -0.276578,-0.09878 -0.108655,-0.108656 -0.108655,-0.276578 v -0.592667 q -0.345723,0.474134 -0.879123,0.750711 -0.5334,0.2667 -1.175455,0.2667 -0.750712,0 -1.363134,-0.3556 -0.602544,-0.365477 -0.958144,-0.987777 -0.345723,-0.632178 -0.345723,-1.402645 0,-0.770467 0.3556,-1.402645 0.365478,-0.632178 0.987778,-0.987778 0.632178,-0.365477 1.402645,-0.365477 z m 0,4.810478 q 0.563033,0 1.017411,-0.2667 0.454378,-0.2667 0.7112,-0.730956 0.2667,-0.474133 0.2667,-1.056922 0,-0.582789 -0.2667,-1.047045 -0.256822,-0.474133 -0.7112,-0.740833 -0.454378,-0.276578 -1.017411,-0.276578 -0.563034,0 -1.027289,0.276578 -0.454378,0.2667 -0.721078,0.740833 -0.256822,0.464256 -0.256822,1.047045 0,0.582789 0.256822,1.056922 0.2667,0.464256 0.721078,0.730956 0.464255,0.2667 1.027289,0.2667 z"
         style="font-style:normal;font-variant:normal;font-weight:normal;font-stretch:normal;font-size:9.87777901px;line-height:1.25;font-family:Comfortaa;-inkscape-font-specification:Comfortaa;letter-spacing:0px;word-spacing:0px;fill:#f39200;fill-opacity:1;stroke:none;stroke-width:0.26458332"
         id="path29"
         inkscape:connector-curvature="0" />
      <path
         d="m 27.953506,30.201569 q -0.602545,0 -0.987778,-0.474134 -0.375356,-0.484011 -0.375356,-1.234722 v -5.630334 q 0,-0.167922 0.108656,-0.2667 0.108655,-0.108656 0.2667,-0.108656 0.167922,0 0.2667,0.108656 0.108655,0.09878 0.108655,0.2667 v 5.630334 q 0,0.424744 0.167923,0.691444 0.1778,0.2667 0.4445,0.2667 h 0.246944 q 0.148167,0 0.237067,0.108656 0.0889,0.09878 0.0889,0.2667 0,0.167922 -0.128411,0.276578 -0.118534,0.09878 -0.316089,0.09878 z"
         style="font-style:normal;font-variant:normal;font-weight:normal;font-stretch:normal;font-size:9.87777901px;line-height:1.25;font-family:Comfortaa;-inkscape-font-specification:Comfortaa;letter-spacing:0px;word-spacing:0px;fill:#f39200;fill-opacity:1;stroke:none;stroke-width:0.26458332"
         id="path31"
         inkscape:connector-curvature="0" />
      <path
         d="m 31.851987,24.749035 q 0.770467,0 1.392767,0.365477 0.632178,0.3556 0.987778,0.987778 0.365478,0.632178 0.365478,1.402645 v 2.321278 q 0,0.158044 -0.108656,0.2667 -0.108656,0.108656 -0.276578,0.108656 -0.167922,0 -0.276578,-0.09878 -0.108655,-0.108656 -0.108655,-0.276578 v -0.592667 q -0.345723,0.474134 -0.879123,0.750711 -0.5334,0.2667 -1.175455,0.2667 -0.750711,0 -1.363134,-0.3556 -0.602544,-0.365477 -0.958144,-0.987777 -0.345723,-0.632178 -0.345723,-1.402645 0,-0.770467 0.3556,-1.402645 0.365478,-0.632178 0.987778,-0.987778 0.632178,-0.365477 1.402645,-0.365477 z m 0,4.810478 q 0.563033,0 1.017411,-0.2667 0.454378,-0.2667 0.7112,-0.730956 0.2667,-0.474133 0.2667,-1.056922 0,-0.582789 -0.2667,-1.047045 -0.256822,-0.474133 -0.7112,-0.740833 -0.454378,-0.276578 -1.017411,-0.276578 -0.563033,0 -1.027289,0.276578 -0.454378,0.2667 -0.721078,0.740833 -0.256822,0.464256 -0.256822,1.047045 0,0.582789 0.256822,1.056922 0.2667,0.464256 0.721078,0.730956 0.464256,0.2667 1.027289,0.2667 z"
         style="font-style:normal;font-variant:normal;font-weight:normal;font-stretch:normal;font-size:9.87777901px;line-height:1.25;font-family:Comfortaa;-inkscape-font-specification:Comfortaa;letter-spacing:0px;word-spacing:0px;fill:#f39200;fill-opacity:1;stroke:none;stroke-width:0.26458332"
         id="path33"
         inkscape:connector-curvature="0" />
      <path
         sodipodi:nodetypes="scsscscsscs"
         d="m 36.630207,30.201569 c -0.111948,0 -0.20414,-0.03622 -0.276577,-0.108656 -0.07244,-0.07244 -0.108656,-0.16463 -0.108656,-0.276578 v -4.632678 c 0,-0.111948 0.03622,-0.204141 0.108656,-0.276578 0.07244,-0.07244 0.164629,-0.108656 0.276577,-0.108656 0.111949,0 0.200849,0.03622 0.2667,0.108656 0.07244,0.07244 0.108656,0.16463 0.108656,0.276578 v 4.632678 c 0,0.111948 -0.03622,0.204141 -0.108656,0.276578 -0.06585,0.07244 -0.154753,0.108656 -0.2667,0.108656 z"
         style="font-style:normal;font-variant:normal;font-weight:normal;font-stretch:normal;font-size:9.87777901px;line-height:1.25;font-family:Comfortaa;-inkscape-font-specification:Comfortaa;letter-spacing:0px;word-spacing:0px;fill:#f39200;fill-opacity:1;stroke:none;stroke-width:0.26458332"
         id="path35"
         inkscape:connector-curvature="0" />
      <path
         d="m 44.631825,24.739157 q 0.582789,0 1.027289,0.276578 0.454378,0.276577 0.701323,0.790222 0.256822,0.503767 0.256822,1.175456 v 2.8448 q 0,0.167922 -0.108656,0.276578 -0.09878,0.09878 -0.2667,0.09878 -0.167922,0 -0.276577,-0.09878 -0.108656,-0.108656 -0.108656,-0.276578 v -2.8448 q 0,-0.701323 -0.365478,-1.106312 -0.3556,-0.414866 -0.938389,-0.414866 -0.6223,0 -1.007533,0.414866 -0.385234,0.414867 -0.375356,1.086556 v 0.01976 2.8448 q 0,0.167922 -0.108655,0.276578 -0.09878,0.09878 -0.266701,0.09878 -0.167922,0 -0.276577,-0.09878 -0.108656,-0.108656 -0.108656,-0.276578 v -2.8448 q 0,-0.701323 -0.365478,-1.106312 -0.3556,-0.414866 -0.938389,-0.414866 -0.612422,0 -1.007533,0.404989 -0.395111,0.404989 -0.395111,1.037166 v 2.923823 q 0,0.167922 -0.108656,0.276578 -0.09878,0.09878 -0.2667,0.09878 -0.167922,0 -0.276578,-0.09878 -0.108655,-0.108656 -0.108655,-0.276578 v -4.642556 q 0,-0.167922 0.108655,-0.276578 0.108656,-0.108656 0.276578,-0.108656 0.167922,0 0.2667,0.108656 0.108656,0.108656 0.108656,0.276578 v 0.217311 q 0.276577,-0.316089 0.651933,-0.484011 0.385233,-0.1778 0.829734,-0.1778 0.543277,0 0.9779,0.246944 0.434622,0.246945 0.691444,0.691445 0.286456,-0.4445 0.740834,-0.691445 0.464255,-0.246944 1.037166,-0.246944 z"
         style="font-style:normal;font-variant:normal;font-weight:normal;font-stretch:normal;font-size:9.87777901px;line-height:1.25;font-family:Comfortaa;-inkscape-font-specification:Comfortaa;letter-spacing:0px;word-spacing:0px;fill:#f39200;fill-opacity:1;stroke:none;stroke-width:0.26458332"
         id="path37"
         inkscape:connector-curvature="0" />
      <path
         d="m 50.758672,30.250957 q -0.780345,0 -1.412523,-0.3556 -0.6223,-0.3556 -0.9779,-0.9779 -0.3556,-0.632178 -0.3556,-1.412522 0,-0.780345 0.3556,-1.412522 0.3556,-0.632178 0.9779,-0.987778 0.632178,-0.3556 1.412523,-0.3556 0.780344,0 1.402644,0.3556 0.622301,0.3556 0.977901,0.987778 0.365477,0.632177 0.365477,1.412522 0,0.780344 -0.3556,1.412522 -0.3556,0.6223 -0.987778,0.9779 -0.6223,0.3556 -1.402644,0.3556 z m 0,-0.691444 q 0.572911,0 1.027289,-0.2667 0.454378,-0.2667 0.7112,-0.730956 0.256822,-0.474133 0.256822,-1.056922 0,-0.592667 -0.256822,-1.056922 -0.256822,-0.474134 -0.7112,-0.740834 -0.454378,-0.2667 -1.027289,-0.2667 -0.563034,0 -1.027289,0.2667 -0.454378,0.2667 -0.721078,0.740834 -0.256822,0.464255 -0.256822,1.056922 0,0.582789 0.256822,1.056922 0.2667,0.464256 0.721078,0.730956 0.464255,0.2667 1.027289,0.2667 z"
         style="font-style:normal;font-variant:normal;font-weight:normal;font-stretch:normal;font-size:9.87777901px;line-height:1.25;font-family:Comfortaa;-inkscape-font-specification:Comfortaa;letter-spacing:0px;word-spacing:0px;fill:#f39200;fill-opacity:1;stroke:none;stroke-width:0.26458332"
         id="path39"
         inkscape:connector-curvature="0" />
      <path
         d="m 57.551961,24.739157 q 0.701322,0 1.254478,0.296333 0.563033,0.296334 0.879122,0.869245 0.316089,0.563033 0.316089,1.353255 v 2.568223 q 0,0.158044 -0.108655,0.2667 -0.108656,0.108656 -0.2667,0.108656 -0.167923,0 -0.276578,-0.108656 -0.108656,-0.108656 -0.108656,-0.2667 V 27.25799 q 0,-0.879122 -0.493889,-1.3335 -0.484011,-0.464255 -1.274233,-0.464255 -0.484011,0 -0.879123,0.187677 -0.385233,0.187678 -0.612422,0.523523 -0.227189,0.325966 -0.227189,0.730955 v 2.923823 q 0,0.167922 -0.108655,0.276578 -0.09878,0.09878 -0.2667,0.09878 -0.167923,0 -0.276578,-0.09878 -0.108656,-0.108656 -0.108656,-0.276578 v -4.642556 q 0,-0.167922 0.108656,-0.276578 0.108655,-0.108656 0.276578,-0.108656 0.167922,0 0.2667,0.108656 0.108655,0.108656 0.108655,0.276578 v 0.335844 q 0.325967,-0.365477 0.790223,-0.572911 0.464255,-0.207433 1.007533,-0.207433 z"
         style="font-style:normal;font-variant:normal;font-weight:normal;font-stretch:normal;font-size:9.87777901px;line-height:1.25;font-family:Comfortaa;-inkscape-font-specification:Comfortaa;letter-spacing:0px;word-spacing:0px;fill:#f39200;fill-opacity:1;stroke:none;stroke-width:0.26458332"
         id="path41"
         inkscape:connector-curvature="0" />
      <path
         d="m 61.865928,30.359613 q -0.237067,0 -0.404989,-0.167922 -0.167922,-0.167922 -0.167922,-0.404989 0,-0.246945 0.167922,-0.414867 0.1778,-0.167922 0.404989,-0.167922 0.237066,0 0.404989,0.1778 0.167922,0.167922 0.167922,0.404989 0,0.237067 -0.167922,0.404989 -0.167923,0.167922 -0.404989,0.167922 z"
         style="font-style:normal;font-variant:normal;font-weight:normal;font-stretch:normal;font-size:9.87777901px;line-height:1.25;font-family:Comfortaa;-inkscape-font-specification:Comfortaa;letter-spacing:0px;word-spacing:0px;fill:#f39200;fill-opacity:1;stroke:none;stroke-width:0.26458332"
         id="path43"
         inkscape:connector-curvature="0" />
      <path
         sodipodi:nodetypes="scsscscsscs"
         d="m 64.372877,30.201569 c -0.111948,0 -0.20414,-0.03622 -0.276577,-0.108656 -0.07244,-0.07244 -0.108656,-0.16463 -0.108656,-0.276578 v -4.632678 c 0,-0.111948 0.03622,-0.204141 0.108656,-0.276578 0.07244,-0.07244 0.164629,-0.108656 0.276577,-0.108656 0.111949,0 0.200849,0.03622 0.2667,0.108656 0.07244,0.07244 0.108656,0.16463 0.108656,0.276578 v 4.632678 c 0,0.111948 -0.03622,0.204141 -0.108656,0.276578 -0.06585,0.07244 -0.154753,0.108656 -0.2667,0.108656 z"
         style="font-style:normal;font-variant:normal;font-weight:normal;font-stretch:normal;font-size:9.87777901px;line-height:1.25;font-family:Comfortaa;-inkscape-font-specification:Comfortaa;letter-spacing:0px;word-spacing:0px;fill:#f39200;fill-opacity:1;stroke:none;stroke-width:0.26458332"
         id="path45"
         inkscape:connector-curvature="0" />
      <path
         d="m 69.14446,30.250957 q -0.780345,0 -1.412523,-0.3556 -0.6223,-0.3556 -0.9779,-0.9779 -0.3556,-0.632178 -0.3556,-1.412522 0,-0.780345 0.3556,-1.412522 0.3556,-0.632178 0.9779,-0.987778 0.632178,-0.3556 1.412523,-0.3556 0.780344,0 1.402644,0.3556 0.6223,0.3556 0.977901,0.987778 0.365477,0.632177 0.365477,1.412522 0,0.780344 -0.3556,1.412522 -0.3556,0.6223 -0.987778,0.9779 -0.6223,0.3556 -1.402644,0.3556 z m 0,-0.691444 q 0.572911,0 1.027289,-0.2667 0.454378,-0.2667 0.7112,-0.730956 0.256822,-0.474133 0.256822,-1.056922 0,-0.592667 -0.256822,-1.056922 -0.256822,-0.474134 -0.7112,-0.740834 -0.454378,-0.2667 -1.027289,-0.2667 -0.563034,0 -1.027289,0.2667 -0.454378,0.2667 -0.721078,0.740834 -0.256822,0.464255 -0.256822,1.056922 0,0.582789 0.256822,1.056922 0.2667,0.464256 0.721078,0.730956 0.464255,0.2667 1.027289,0.2667 z"
         style="font-style:normal;font-variant:normal;font-weight:normal;font-stretch:normal;font-size:9.87777901px;line-height:1.25;font-family:Comfortaa;-inkscape-font-specification:Comfortaa;letter-spacing:0px;word-spacing:0px;fill:#f39200;fill-opacity:1;stroke:none;stroke-width:0.26458332"
         id="path47"
         inkscape:connector-curvature="0" />
    </g>
    <ellipse
       style="opacity:1;vector-effect:none;fill:none;fill-opacity:1;fill-rule:evenodd;stroke:#4fc1ea;stroke-width:1.17860043;stroke-linecap:butt;stroke-linejoin:miter;stroke-miterlimit:4;stroke-dasharray:none;stroke-dashoffset:0;stroke-opacity:1"
       id="path4839"
       cx="64.506996"
       cy="18.252001"
       rx="4.5106997"
       ry="4.5106993" />
    <circle
       style="opacity:1;fill:none;fill-opacity:1;stroke:#f39200;stroke-width:0.82240671;stroke-miterlimit:4;stroke-dasharray:none;stroke-opacity:1"
       id="path4842"
       cx="77.275002"
       cy="20.594"
       r="3.8387966" />
    <circle
       style="opacity:1;fill:none;fill-opacity:1;stroke:#f39200;stroke-width:0.78399998;stroke-miterlimit:4;stroke-dasharray:none;stroke-opacity:1"
       id="path4842-6"
       cx="36.732117"
       cy="20.603884"
       r="2.2581158" />
  </g>
</svg>
